<?xml version="1.0" encoding="UTF-8" standalone="no"?>
<!-- Created with Inkscape (http://www.inkscape.org/) -->

<svg
   width="26.932901mm"
   height="29.233025mm"
   viewBox="0 0 26.932901 29.233025"
   version="1.1"
   id="svg5"
   inkscape:version="1.2 (dc2aeda, 2022-05-15)"
   sodipodi:docname="SKKitchen.svg"
   inkscape:export-filename="../KaylasMenu/images/SKKitchen.jpg"
   inkscape:export-xdpi="96"
   inkscape:export-ydpi="96"
   xmlns:inkscape="http://www.inkscape.org/namespaces/inkscape"
   xmlns:sodipodi="http://sodipodi.sourceforge.net/DTD/sodipodi-0.dtd"
   xmlns="http://www.w3.org/2000/svg"
   xmlns:svg="http://www.w3.org/2000/svg">
  <sodipodi:namedview
     id="namedview7"
     pagecolor="#ffffff"
     bordercolor="#000000"
     borderopacity="0.25"
     inkscape:showpageshadow="2"
     inkscape:pageopacity="0.0"
     inkscape:pagecheckerboard="0"
     inkscape:deskcolor="#d1d1d1"
     inkscape:document-units="mm"
     showgrid="false"
     inkscape:zoom="1"
     inkscape:cx="-174.5"
     inkscape:cy="106.5"
     inkscape:window-width="1920"
     inkscape:window-height="1027"
     inkscape:window-x="0"
     inkscape:window-y="25"
     inkscape:window-maximized="0"
     inkscape:current-layer="layer1"
     showguides="true" />
  <defs
     id="defs2">
    <rect
       x="183.03343"
       y="153.59448"
       width="482.54266"
       height="166.39401"
       id="rect125" />
    <rect
       x="336.6279"
       y="249.59103"
       width="148.47467"
       height="61.437794"
       id="rect119" />
    <rect
       x="222.71201"
       y="175.3537"
       width="293.10947"
       height="63.997704"
       id="rect63" />
  </defs>
  <g
     inkscape:label="Layer 1"
     inkscape:groupmode="layer"
     id="layer1"
     transform="translate(-96.646601,-121.78865)">
    <path
       style="color:#000000;fill:#000000;stroke-width:15;stroke-linecap:square;stroke-dasharray:none"
       d="m 96.979207,139.45214 c 0.196617,0.8696 0.479628,1.7175 0.843836,2.53127 l 0.07151,0.16046 0.32065,-0.14355 -0.07221,-0.16028 c -0.354714,-0.79253 -0.62971,-1.61845 -0.821202,-2.46537 -1.33227,-5.89216 1.531282,-11.93028 6.936659,-14.62738 l 0.15677,-0.0784 -0.15677,-0.3141 -0.15676,0.0784 c -5.548483,2.76851 -8.489974,8.9708 -7.122443,15.01896 z"
       id="path5496" />
    <path
       style="color:#000000;fill:#000000;stroke-width:15;stroke-linecap:square;stroke-dasharray:none"
       d="m 115.61765,124.57741 0.15852,0.0759 c 3.61809,1.73199 6.24462,5.02409 7.12926,8.93662 0.61439,2.71717 0.3473,5.55951 -0.76203,8.11487 l -0.0697,0.16133 0.32206,0.13968 0.0697,-0.16134 c 1.13902,-2.62376 1.41342,-5.54206 0.78262,-8.33195 -0.90829,-4.01705 -3.60518,-7.39799 -7.31993,-9.17627 l -0.15835,-0.0754 z"
       id="path5492" />
    <text
       xml:space="preserve"
       transform="scale(0.26458333)"
       id="text117"
       style="white-space:pre;shape-inside:url(#rect119);display:inline;fill:#000000" />
    <text
       xml:space="preserve"
       transform="scale(0.26458333)"
       id="text123"
       style="font-size:53.3333px;white-space:pre;shape-inside:url(#rect125);display:inline;fill:#000000" />
    <g
       aria-label="SK"
       id="text14492"
       style="font-size:25.4px;font-family:AppleGothic;-inkscape-font-specification:AppleGothic;fill:none;stroke:#1a1a1a;stroke-width:2.30021;stroke-linecap:square"
       transform="matrix(0.65211509,0,0,0.65211509,39.660488,45.514133)" />
    <path
       id="path23386"
       style="color:#000000;fill:#1a1a1a;stroke-width:15;stroke-linecap:square;stroke-dasharray:none"
       d="m 113.26617,131.41977 0.0201,0.1705 c 0.0875,0.74729 -0.11607,1.54015 -1.03302,2.27542 l -0.13369,0.10744 -0.21519,-0.268 0.13421,-0.10779 c 0.8466,-0.67889 0.98448,-1.30034 0.90641,-1.96718 l -0.0201,-0.1705 z m -3.36292,8.69783 v 0.17173 4.73296 h 0.80306 v -1.82849 l 0.49169,-0.49124 1.62088,2.31973 h 1.01736 l -2.02577,-2.91565 1.97658,-1.98911 h -1.09611 l -1.98463,2.03117 v -2.03117 z m 0.3436,0.3436 h 0.11589 v 2.53045 l 2.47273,-2.53045 h 0.12523 l -1.59585,1.60614 1.81419,2.61142 h -0.18119 l -1.75333,-2.50898 -0.88181,0.88183 v 1.62715 h -0.1159 z m -2.30721,-0.41965 c -0.4726,0 -0.88501,0.12981 -1.21242,0.39237 -0.32182,0.25657 -0.49527,0.61483 -0.49527,1.02451 0,0.49427 0.28584,0.89367 0.78071,1.12206 l 0.009,0.005 0.0106,0.004 c 0.20853,0.0657 0.41735,0.13316 0.62591,0.20266 0.20715,0.069 0.41801,0.13598 0.6326,0.20132 0.20738,0.0805 0.3517,0.17578 0.43934,0.2747 0.0879,0.099 0.12523,0.19843 0.12523,0.3266 0,0.22619 -0.0826,0.38469 -0.28364,0.52971 v 3.5e-4 h -3.5e-4 c -0.1813,0.13192 -0.40284,0.19998 -0.68451,0.19998 -0.0879,0 -0.17543,-0.007 -0.26351,-0.021 -0.0842,-0.0141 -0.17138,-0.0377 -0.26218,-0.0726 l -0.002,-3.5e-4 -0.002,-0.001 c -0.28112,-0.0997 -0.56498,-0.27473 -0.85051,-0.5306 l -0.28632,-0.25636 v 1.07016 l 0.077,0.0511 c 0.23442,0.155 0.43968,0.26829 0.62277,0.34091 0.30712,0.12857 0.62924,0.19371 0.96144,0.19371 0.49551,0 0.92841,-0.13298 1.27506,-0.40264 l 3.5e-4,-3.5e-4 h 3.6e-4 c 0.3656,-0.28819 0.56012,-0.69409 0.56012,-1.16502 0,-0.49861 -0.28861,-0.90377 -0.79008,-1.14396 l -0.0106,-0.005 -0.0106,-0.004 c -0.21659,-0.0696 -0.43145,-0.13739 -0.64424,-0.20312 l -0.004,-0.001 c -0.20768,-0.0692 -0.41749,-0.14038 -0.62903,-0.2134 h -3.5e-4 l -3.5e-4,-3.7e-4 c -0.21236,-0.072 -0.35972,-0.15922 -0.4474,-0.2483 -0.0877,-0.0891 -0.12259,-0.17437 -0.12259,-0.28722 0,-0.15922 0.0641,-0.28457 0.23578,-0.41651 0.16415,-0.12541 0.37192,-0.19104 0.64558,-0.19104 0.21461,0 0.4249,0.0477 0.63709,0.14672 l 0.004,0.001 0.004,0.001 c 0.0905,0.0384 0.18249,0.0872 0.2756,0.14813 l 0.001,0.001 10e-4,0.001 c 0.0976,0.0613 0.19346,0.1321 0.28857,0.21253 l 0.28275,0.23934 v -1.05628 l -0.0845,-0.0497 c -0.20291,-0.11942 -0.37865,-0.20515 -0.53508,-0.2577 -0.28845,-0.10692 -0.58067,-0.16187 -0.87286,-0.16187 z m 0,0.3436 c 0.25025,0 0.50075,0.0467 0.75475,0.1409 l 0.004,0.001 0.004,0.001 c 0.10022,0.0333 0.24077,0.10674 0.38834,0.18836 v 0.14143 c -0.0141,-0.009 -0.028,-0.0222 -0.0425,-0.0314 -0.10709,-0.0701 -0.21562,-0.12857 -0.32527,-0.17543 -0.25285,-0.11783 -0.51526,-0.17849 -0.78113,-0.17849 -0.3312,0 -0.6236,0.0853 -0.85498,0.26216 v 3.5e-4 c -0.23185,0.17837 -0.36999,0.42106 -0.36999,0.68854 0,0.19739 0.0798,0.38434 0.22101,0.52792 0.14091,0.14337 0.33677,0.24974 0.58161,0.33286 1.2e-4,3e-5 2.3e-4,-4e-5 3.5e-4,0 2.3e-4,7e-5 2.3e-4,3.5e-4 3.6e-4,3.5e-4 0.21357,0.0738 0.42509,0.14531 0.63483,0.2152 l 0.001,0.001 0.001,3.6e-4 c 0.20666,0.0638 0.41557,0.12981 0.62591,0.1973 0.41812,0.2016 0.59145,0.45472 0.59145,0.83124 0,0.38242 -0.13562,0.66319 -0.4295,0.89479 -0.2816,0.21872 -0.62802,0.32972 -1.063,0.32972 -0.28812,0 -0.56278,-0.0551 -0.82946,-0.16679 l -0.001,-3.4e-4 -10e-4,-10e-4 c -0.12946,-0.0511 -0.30094,-0.15024 -0.48496,-0.26667 v -0.18744 c 0.22266,0.1631 0.44385,0.33698 0.67645,0.41964 0.11009,0.0423 0.21971,0.0729 0.32883,0.0904 0.10585,0.0176 0.21197,0.0255 0.31809,0.0255 0.33872,0 0.64099,-0.0872 0.88629,-0.26531 l 3.5e-4,-3.5e-4 c 0.27182,-0.1963 0.42546,-0.48361 0.42546,-0.80797 0,-0.20543 -0.0743,-0.39935 -0.2116,-0.55433 -0.13721,-0.155 -0.33094,-0.2738 -0.57312,-0.36775 l -0.005,-0.004 -0.005,-0.001 c -0.21576,-0.0655 -0.42735,-0.13298 -0.63529,-0.20222 -0.20485,-0.0682 -0.40985,-0.13456 -0.61471,-0.19908 -0.40919,-0.19019 -0.57713,-0.43443 -0.57713,-0.80753 0,-0.31953 0.1136,-0.55452 0.36595,-0.75565 l 3.5e-4,-3.5e-4 c 0.26211,-0.21036 0.58614,-0.3172 0.99769,-0.3172 z m 2.9143,-10.54635 -0.31808,0.12981 0.0648,0.15887 c 0.47436,1.16306 0.36042,2.19416 0.0551,3.21943 l -0.0493,0.16468 0.32926,0.0985 0.0493,-0.16468 c 0.31702,-1.06441 0.44271,-2.19983 -0.0662,-3.44759 z m -2.34745,0.20178 -0.0357,0.16768 c -0.27683,1.28566 0.0553,2.17996 0.24158,3.10041 l 0.0343,0.16874 0.33645,-0.0685 -0.034,-0.16821 c -0.19318,-0.95451 -0.50108,-1.76097 -0.24294,-2.95993 l 0.0363,-0.16821 z m -2.13987,1.28624 -0.0203,0.1705 c -0.0874,0.74731 0.11608,1.54014 1.03302,2.27543 l 0.13386,0.10744 0.2152,-0.26799 -0.13421,-0.10779 c -0.8466,-0.67887 -0.98449,-1.30032 -0.90641,-1.96718 l 0.0201,-0.17049 z m 3.52588,-3.99656 c -0.7145,0.0254 -1.41804,0.26374 -1.89693,0.72075 -0.47891,0.45703 -0.71167,1.14816 -0.46753,1.97659 l 0.0483,0.16468 0.32972,-0.0971 -0.0488,-0.16468 c -0.21421,-0.72689 -0.0234,-1.25014 0.37536,-1.63073 0.3988,-0.38061 1.02696,-0.60315 1.67189,-0.62591 0.64493,-0.0227 1.29917,0.15359 1.7511,0.52613 0.45192,0.37261 0.7196,0.93044 0.60621,1.75557 l -0.0238,0.1705 0.34047,0.0465 0.0238,-0.16997 c 0.12664,-0.92208 -0.19298,-1.62682 -0.7279,-2.06786 -0.53492,-0.44102 -1.26742,-0.62962 -1.98194,-0.60441 z m -3.3939,2.28976 c -1.12254,0.0141 -2.03691,0.65175 -2.39802,1.48891 -0.24074,0.55811 -0.22969,1.21121 0.12875,1.79272 0.35854,0.58148 1.05117,1.0845 2.14212,1.39853 l 0.16503,0.0479 0.0948,-0.33017 -0.16504,-0.0479 c -1.03434,-0.29775 -1.64328,-0.76039 -1.94434,-1.24868 -0.30109,-0.48829 -0.30771,-1.00884 -0.10604,-1.47638 0.40335,-0.93511 1.66328,-1.63534 3.1438,-1.09387 l 0.16099,0.059 0.11801,-0.32257 -0.16099,-0.059 c -0.40761,-0.14901 -0.80516,-0.21337 -1.17932,-0.20848 z m 7.17481,-0.009 c -0.37399,-0.005 -0.77099,0.0583 -1.17844,0.20535 l -0.16151,0.0581 0.11625,0.32345 0.16151,-0.0581 c 1.48121,-0.53417 2.74265,0.15764 3.14515,1.07776 0.20127,0.46006 0.19458,0.97106 -0.10603,1.45179 -0.3006,0.48072 -0.90969,0.93752 -1.94435,1.23121 l -0.16503,0.047 0.0935,0.33017 0.16557,-0.0465 c 1.09065,-0.30957 1.78311,-0.80561 2.14211,-1.37975 0.35901,-0.57412 0.37002,-1.22037 0.12893,-1.77167 -0.36174,-0.82693 -1.27563,-1.45449 -2.39758,-1.46877 z m -7.271,8.83911 -0.0999,0.32838 0.16416,0.05 c 2.35652,0.71574 4.71578,0.65508 7.06341,0.0511 l 0.16644,-0.043 -0.0859,-0.33287 -0.16645,0.043 c -2.29936,0.59166 -4.58726,0.64869 -6.87773,-0.047 z m 3.31965,-5.28549 c -0.92539,-0.0639 -1.99923,0.10427 -3.28566,0.81291 l -0.0895,0.0493 3.5e-4,0.10162 0.0123,4.6909 0.21923,-0.0639 c 1.75522,-0.51149 2.76576,-1.48228 6.83836,-0.0159 l 0.23042,0.0831 -0.0123,-4.88819 -0.17985,0.009 c -0.85724,0.0442 -1.74347,-0.40304 -2.8548,-0.64916 -0.27783,-0.0616 -0.56977,-0.10885 -0.87821,-0.13016 z m -0.0247,0.34003 c 0.28872,0.0211 0.56361,0.0666 0.82856,0.12523 0.99422,0.2202 1.85306,0.63466 2.76668,0.64515 l 0.0106,4.06857 c -3.76035,-1.29972 -5.06373,-0.48729 -6.60123,0.007 l -0.0106,-4.11245 c 1.19282,-0.6377 2.16214,-0.7961 3.00601,-0.73415 z" />
    <g
       aria-label="KITCHEN"
       id="text961"
       style="font-weight:bold;font-size:12.1458px;font-family:Raleway;-inkscape-font-specification:'Raleway, Bold';letter-spacing:3.92112px;stroke-width:42.703;stroke-linecap:square;stroke-dasharray:none"
       transform="matrix(0.35122915,0.00491156,-0.00491156,0.35122915,70.988697,88.807268)">
      <path
         d="m 81.753816,161.884 5.825458,-6.3419 1.234391,1.13387 -2.768942,3.01441 5.442726,-0.57486 1.359619,1.2489 -5.021182,0.58276 -0.660431,5.90777 -1.395398,-1.28176 0.537418,-4.55297 -1.577383,0.10134 -1.741886,1.89631 z"
         id="path3179"
         style="stroke-width:42.703;stroke-dasharray:none" />
      <path
         d="m 91.185509,169.33585 4.281702,-7.48546 1.45492,0.83222 -4.281702,7.48546 z"
         id="path3181"
         style="stroke-width:42.703;stroke-dasharray:none" />
      <path
         d="m 106.10083,167.76189 -2.6298,-0.8281 -2.14868,6.82357 -1.587149,-0.49978 2.148689,-6.82357 -2.629798,-0.8281 0.441411,-1.40179 6.846737,2.15598 z"
         id="path3183"
         style="stroke-width:42.703;stroke-dasharray:none" />
      <path
         d="m 108.35408,170.95995 q 0.0291,-0.78894 0.33609,-1.53115 0.31954,-0.75391 0.88858,-1.35275 0.5695,-0.61098 1.37189,-0.94597 0.80283,-0.34713 1.81025,-0.30993 1.18947,0.0439 2.03196,0.59767 0.85463,0.55419 1.24852,1.40737 l -1.3193,0.83852 q -0.20055,-0.49357 -0.54223,-0.78573 -0.34123,-0.3043 -0.73773,-0.42833 -0.39606,-0.13617 -0.78446,-0.15051 -0.63115,-0.0233 -1.11393,0.2141 -0.47064,0.23785 -0.80145,0.63887 -0.33082,0.40103 -0.50743,0.90497 -0.16448,0.5044 -0.1833,1.01418 -0.0211,0.57046 0.14127,1.11124 0.16279,0.52863 0.47526,0.95341 0.32506,0.41309 0.77732,0.67287 0.46485,0.2481 1.02317,0.26872 0.40054,0.0148 0.81815,-0.10348 0.4176,-0.11827 0.78035,-0.39658 0.36275,-0.2783 0.57398,-0.73235 l 1.3424,0.83959 q -0.27864,0.63387 -0.87783,1.06145 -0.58705,0.42802 -1.31168,0.63218 -0.72463,0.20417 -1.4286,0.17817 -0.92245,-0.0341 -1.67322,-0.43857 -0.75032,-0.41664 -1.28534,-1.06841 -0.52243,-0.66346 -0.80887,-1.46405 -0.27386,-0.81228 -0.24382,-1.6255 z"
         id="path3185"
         style="stroke-width:42.703;stroke-dasharray:none" />
      <path
         d="m 125.8436,164.87429 2.14391,8.35277 -1.61173,0.41368 -0.91494,-3.56463 -3.78815,0.97231 0.91493,3.56463 -1.62349,0.4167 -2.14391,-8.35276 1.62349,-0.41671 0.86663,3.3764 3.78815,-0.97231 -0.86662,-3.3764 z"
         id="path3187"
         style="stroke-width:42.703;stroke-dasharray:none" />
      <path
         d="m 137.67413,166.63482 0.74291,1.26805 -5.16649,3.02688 -4.35921,-7.44058 5.07217,-2.97163 0.74291,1.26804 -3.62597,2.12435 1.04989,1.79203 3.13343,-1.83578 0.68765,1.17372 -3.13343,1.83578 1.13585,1.93875 z"
         id="path3189"
         style="stroke-width:42.703;stroke-dasharray:none" />
      <path
         d="m 139.73925,159.65084 4.003,3.82764 -1.15836,1.21143 -6.23275,-5.95969 0.92333,-0.96564 7.18892,0.70665 -4.09956,-3.91997 1.15836,-1.21143 6.22397,5.9513 -0.9653,1.00952 z"
         id="path3191"
         style="stroke-width:42.703;stroke-dasharray:none" />
    </g>
    <g
       aria-label="SK"
       id="text3174"
       style="font-weight:bold;font-size:12.1458px;font-family:Raleway;-inkscape-font-specification:'Raleway, Bold';letter-spacing:-0.92075px;stroke-width:42.703;stroke-linecap:square;stroke-dasharray:none"
       transform="matrix(0.3512635,0,0,0.3512635,70.04028,90.256842)">
      <path
         d="m 110.93905,92.156798 q -0.095,-0.07369 -0.34223,-0.18937 -0.23516,-0.117199 -0.57726,-0.208647 -0.33005,-0.09297 -0.71577,-0.14218 -0.38726,-0.06126 -0.77286,-0.01255 -0.6748,0.08525 -0.99228,0.382445 -0.30543,0.295675 -0.24759,0.753576 0.0442,0.349451 0.28693,0.5269 0.24278,0.177449 0.69485,0.267246 0.45207,0.0898 1.12408,0.176294 0.86938,0.09829 1.52199,0.321903 0.66314,0.210041 1.04938,0.65094 0.39677,0.427327 0.49572,1.210578 0.0868,0.686852 -0.10387,1.212871 -0.19216,0.513969 -0.59995,0.871544 -0.40779,0.357576 -0.95588,0.573724 -0.5496,0.204099 -1.18825,0.28478 -0.63865,0.08068 -1.29405,0.02881 -0.6554,-0.05187 -1.27629,-0.218277 -0.62242,-0.178458 -1.16062,-0.465494 l 0.5539,-1.526813 q 0.12215,0.09475 0.42213,0.240487 0.29847,0.133688 0.71895,0.264202 0.41896,0.118465 0.90414,0.179595 0.48517,0.06113 0.96717,2.39e-4 0.6748,-0.08525 0.99533,-0.358346 0.32053,-0.273097 0.26725,-0.694848 -0.0487,-0.3856 -0.35327,-0.567488 -0.30455,-0.181888 -0.81839,-0.276124 -0.51536,-0.106286 -1.21452,-0.213838 -0.83628,-0.126956 -1.41354,-0.335603 -0.57879,-0.220697 -0.89869,-0.621008 -0.3199,-0.40031 -0.40211,-1.051011 -0.11113,-0.879652 0.22398,-1.521861 0.34564,-0.655782 1.01853,-1.046848 0.67137,-0.403116 1.53898,-0.512721 0.6025,-0.07612 1.14944,-0.01055 0.559,0.06405 1.05635,0.221578 0.49735,0.15753 0.90287,0.36339 z"
         id="path3200"
         style="stroke-width:42.703;stroke-dasharray:none" />
      <path
         d="m 113.13829,98.349954 0.69678,-8.583135 1.67063,0.135622 -0.3312,4.079714 3.93976,-3.798953 1.84011,0.149381 -3.6024,3.546068 3.11043,5.065881 -1.88853,-0.153313 -2.37469,-3.921621 -1.18192,1.049513 -0.20835,2.566466 z"
         id="path3202"
         style="stroke-width:42.703;stroke-dasharray:none" />
    </g>
  </g>
</svg>
